<?xml version="1.0" encoding="UTF-8" standalone="no"?>
<svg xmlns="http://www.w3.org/2000/svg" width="400" height="180" viewBox="0 0 400 180">
  <!-- DepEd text - Dep in blue -->
  <path d="M30,40 C40,40 50,40 60,40 C80,40 90,50 90,70 C90,90 80,100 60,100 C50,100 40,100 30,100 Z" fill="#004080"/>
  <path d="M30,50 L30,90 C40,90 50,90 55,90 C70,90 75,80 75,70 C75,60 70,50 55,50 C50,50 40,50 30,50 Z" fill="white"/>
  
  <!-- e in Dep -->
  <path d="M100,40 C120,40 140,50 140,70 C140,90 120,100 100,100 C80,100 70,85 70,70 C70,55 80,40 100,40 Z" fill="#004080"/>
  <path d="M100,50 C90,50 85,60 85,70 C85,80 90,90 100,90 C110,90 125,90 125,70 C125,70 100,70 100,70 C100,70 100,60 100,60 C100,60 125,60 125,60 C125,50 110,50 100,50 Z" fill="white"/>
  
  <!-- p in Dep -->
  <path d="M145,40 L160,40 L160,100 L145,100 L145,40 Z" fill="#004080"/>
  <path d="M160,60 C170,60 180,65 180,75 C180,85 170,90 160,90 L160,60 Z" fill="#004080"/>
  
  <!-- Torch middle -->
  <rect x="190" y="40" width="15" height="70" fill="#004080"/>
  <path d="M182,40 Q197,10 212,40" fill="#FF0000" stroke="none"/>
  <path d="M187,35 Q197,15 207,35" fill="#FFCC00" stroke="none"/>
  
  <!-- ED in red -->
  <path d="M225,40 L280,40 L280,50 L240,50 L240,65 L270,65 L270,75 L240,75 L240,90 L280,90 L280,100 L225,100 L225,40 Z" fill="#FF0000"/>
  <path d="M290,40 C310,40 320,40 330,40 C350,40 360,50 360,70 C360,90 350,100 330,100 C320,100 310,100 290,100 Z" fill="#FF0000"/>
  <path d="M305,50 L305,90 L330,90 C340,90 345,80 345,70 C345,60 340,50 330,50 L305,50 Z" fill="white"/>
  
  <!-- Department of Education text -->
  <text x="30" y="150" font-family="Times New Roman, serif" font-size="22" font-weight="normal" fill="#004080">DEPARTMENT</text>
  <text x="190" y="150" font-family="Times New Roman, serif" font-size="22" font-weight="normal" fill="#004080">OF</text>
  <text x="230" y="150" font-family="Times New Roman, serif" font-size="22" font-weight="normal" fill="#004080">EDUCATION</text>
</svg>
